# xmcd CD database file
#
# Track frame offsets:
#	150
#	16278
#	24859
#	39622
#	55033
#	71098
#	85674
#	109286
#	120237
#	135337
#	149007
#	158649
#	172435
#	182900
#
# Disc length: 2621 seconds
#
# Revision: 3
# Processed by: cddbd v1.5.1PL0 Copyright (c) Steve Scherf et al.
# Submitted via: CDex 1.51
#
DISCID=bb0a3b0e
DTITLE=B.B. King - 2CD Luxury Edition - CD1
DYEAR=2003
DGENRE=Blues
TTITLE0=The Other Night Blues
TTITLE1=A New Way Of Driving
TTITLE2=B.B. Boogie
TTITLE3=Walking' And Cryin'
TTITLE4=It's My Own Fault
TTITLE5=Mr.Pawnbroker
TTITLE6=You've Done Lost Your Good Thing Now
TTITLE7=Catfish Blues
TTITLE8=Precious Lord
TTITLE9=Servant's Prayer
TTITLE10=Swing Low Sweet Chariot/Rock Me Lord
TTITLE11=Jesus Gave Me Water
TTITLE12=I'm Willing To Run All The Way
TTITLE13=Save a Seat For Me
EXTD=YEAR: 2003
EXTT0=
EXTT1=
EXTT2=
EXTT3=
EXTT4=
EXTT5=
EXTT6=
EXTT7=
EXTT8=
EXTT9=
EXTT10=
EXTT11=
EXTT12=
EXTT13=
PLAYORDER=
